<?xml version="1.0" encoding="utf-8"?>
<!-- Generator: Adobe Illustrator 21.0.0, SVG Export Plug-In . SVG Version: 6.00 Build 0)  -->
<svg version="1.1" id="Layer_1" xmlns="http://www.w3.org/2000/svg" xmlns:xlink="http://www.w3.org/1999/xlink" x="0px" y="0px"
	 viewBox="0 0 128 128" style="enable-background:new 0 0 128 128;" xml:space="preserve">
<path style="fill:#F2F2F2;" d="M102,76.2H26v-8h76V76.2z"/>
<path style="fill:#F2F2F2;" d="M102,92.2H26v-8h76V92.2z"/>
<path style="fill:#F2F2F2;" d="M102,108.2H26v-8h76V108.2z"/>
<path style="fill:#03A9F4;" d="M93,41.3"/>
<g>
	<path style="fill:#03A9F4;" d="M128,16c0-8.8-7.2-16-16-16h-8l0,8h8c4.4,0,8,3.6,8,8l0,96c0,4.4-3.6,8-8,8l-96,0c-4.4,0-8-3.6-8-8
		V16c0-4.4,3.6-8,8-8h8l0-8h-8C7.2,0,0,7.2,0,16v96c0,8.8,7.2,16,16,16l96,0c8.8,0,16-7.2,16-16L128,16z"/>
</g>
<path style="fill:#546E7A;" d="M24,0l0,8l0,34.5c0,4.5,3.7,8.1,8.1,8.1h63.7c4.5,0,8.1-3.6,8.1-8.1L104,8l0-8H24z M32.1,42.4l0-34.4
	h63.7l0,34.4H32.1z"/>
</svg>
