<?xml version="1.0" encoding="utf-8"?>
<!-- Generator: Adobe Illustrator 21.0.0, SVG Export Plug-In . SVG Version: 6.00 Build 0)  -->
<svg version="1.1" id="Layer_1" xmlns="http://www.w3.org/2000/svg" xmlns:xlink="http://www.w3.org/1999/xlink" x="0px" y="0px"
	 viewBox="0 0 128 128" style="enable-background:new 0 0 128 128;" xml:space="preserve">
<path style="fill:#B0BEC5;" d="M96,78.2H32v-8h64V78.2z"/>
<path style="fill:#B0BEC5;" d="M96,94.2H32v-8h64V94.2z"/>
<path style="fill:#B0BEC5;" d="M96,110.2H32v-8h64V110.2z"/>
<path style="fill:#03A9F4;" d="M93,41.3"/>
<g>
	<path style="fill:none;" d="M93,50.6H33.3c-4.5,0-8.1-3.6-8.1-8.1l0-34.5H16c-4.4,0-8,3.6-8,8v96c0,4.4,3.6,8,8,8l96,0
		c4.4,0,8-3.6,8-8l0-96c0-4.4-3.6-8-8-8h-10.9l0,34.4C101.2,46.9,97.5,50.6,93,50.6z"/>
	<polyline style="fill:none;" points="33.3,8 33.3,42.4 93,42.4 93,8 	"/>
	<line style="fill:#03A9F4;" x1="93" y1="8" x2="93" y2="0"/>
	<path style="fill:#03A9F4;" d="M128,16c0-8.8-7.2-16-16-16h-10.9l0,8H112c4.4,0,8,3.6,8,8l0,96c0,4.4-3.6,8-8,8l-96,0
		c-4.4,0-8-3.6-8-8V16c0-4.4,3.6-8,8-8h9.2l0-8H16C7.2,0,0,7.2,0,16v96c0,8.8,7.2,16,16,16l96,0c8.8,0,16-7.2,16-16L128,16z"/>
</g>
<path style="fill:#546E7A;" d="M25.2,0l0,8l0,34.5c0,4.5,3.7,8.1,8.1,8.1H93c4.5,0,8.1-3.6,8.1-8.1l0-34.4l0-8H25.2z M33.3,42.4
	l0-34.4H93l0,34.4H33.3z"/>
</svg>
